<svg width="206" height="52" viewBox="0 0 206 52" fill="none" xmlns="http://www.w3.org/2000/svg">
<rect width="206" height="52" fill="#1E1E1E"/>
<g id="Landing Page" clip-path="url(#clip0_8_18)">
<rect width="1920" height="5780" transform="translate(-120 -32)" fill="#F8F8F8"/>
<g id="Nav Bar">
<rect width="1920" height="116" transform="translate(-120 -32)" fill="#F8F8F8"/>
<g id="Logo">
<g id="Vector">
<path d="M0 38.3158V12.3158L12.2781 19.1579V31.4737L23.1921 36.9474L34.106 31.4737V19.1579L46.3841 12.3158V38.3158L23.1921 52L0 38.3158Z" fill="#16162B"/>
</g>
<g id="Vector_2">
<path fill-rule="evenodd" clip-rule="evenodd" d="M6.82119 16.4211L0 12.3158L23.1921 0L46.3841 12.3158L39.5629 16.4211V35.5789L23.1921 45.1579L6.82119 35.5789V16.4211ZM39.5629 16.4211L34.106 20.5263L23.1921 13.6842L12.2781 20.5263L6.82119 16.4211V35.5789L23.1921 43.7895L39.5629 35.5789V16.4211Z" fill="url(#paint0_linear_8_18)"/>
</g>
<g id="Vector_3">
<path d="M58.6622 36.9474V15.0526H62.755V32.8421H72.3046V36.9474H58.6622Z" fill="#16162B"/>
</g>
<g id="Vector_4">
<path d="M80.4901 36.9474C78.937 36.9474 77.6357 36.2058 76.3973 35.5789C75.159 34.9522 74.3824 34.0329 73.6689 32.8421C72.9552 31.6513 72.3046 30.4082 72.3046 28.7368C72.3046 27.0655 72.9552 25.8224 73.6689 24.6316C74.3824 23.4408 75.159 22.5215 76.3973 21.8947C77.6357 21.2678 78.937 20.5263 80.4901 20.5263C82.0433 20.5263 83.3445 21.2678 84.5828 21.8947C85.8211 22.5215 86.5977 23.4408 87.3112 24.6316C88.0248 25.8224 88.6755 27.0655 88.6755 28.7368C88.6755 30.4082 88.0248 31.6513 87.3112 32.8421C86.5977 34.0329 85.8211 34.9522 84.5828 35.5789C83.3445 36.2058 82.0433 36.9474 80.4901 36.9474ZM80.4901 32.8421C81.7074 32.8421 82.4211 33.6152 83.2185 32.8421C84.0162 32.0483 84.5828 30.1992 84.5828 28.7368C84.5828 27.2744 84.0162 25.4046 83.2185 24.6316C82.442 23.8378 81.7284 24.6316 80.4901 24.6316C79.2728 24.6316 78.5591 23.8378 77.7616 24.6316C76.964 25.4046 76.3973 27.2744 76.3973 28.7368C76.3973 30.1992 76.964 32.0483 77.7616 32.8421C78.5591 33.6152 79.2728 32.8421 80.4901 32.8421Z" fill="#16162B"/>
</g>
<g id="Vector_5">
<path d="M90.0397 28.7368C90.0397 27.1332 90.7557 25.7623 91.404 24.6316C92.0521 23.4803 93.0662 22.4908 94.1324 21.8947C95.2197 21.2779 95.5856 20.5263 96.8609 20.5263C98.2827 20.5263 100.222 21.4014 100.954 21.8947C101.685 22.3881 101.983 22.7286 102.318 23.2632V20.5263H106.411V38.3158C106.411 39.3642 105.674 40.4358 105.046 41.0526C104.419 41.6899 103.363 42.4211 102.318 42.4211H92.7682V39.6842H100.954C101.539 39.6842 102.318 38.9325 102.318 38.3158V34.2105C102.109 34.5395 101.33 35.2295 100.954 35.5789C100.577 35.9079 100.217 35.3527 99.5894 35.5789C98.9622 35.805 97.8227 36.9474 96.8609 36.9474C95.5856 36.9474 95.2197 36.1752 94.1324 35.5789C93.0662 34.9622 92.0521 33.9727 91.404 32.8421C90.7557 31.6908 90.0397 30.3404 90.0397 28.7368ZM98.2252 32.8421C99.4377 32.8421 100.138 32.2343 100.954 31.4737C101.769 30.7131 102.318 30.1142 102.318 28.7368C102.318 27.3388 101.769 25.3717 100.954 24.6316C100.159 23.8709 99.4587 23.2632 98.2252 23.2632C97.0124 23.2632 96.312 23.8709 95.4967 24.6316C94.6813 25.3717 94.1324 27.3388 94.1324 28.7368C94.1324 30.1142 94.6813 30.7131 95.4967 31.4737C96.312 32.2343 97.0124 32.8421 98.2252 32.8421Z" fill="#16162B"/>
</g>
<g id="Vector_6">
<path d="M117.325 36.9474C115.771 36.9474 114.47 36.2058 113.232 35.5789C111.993 34.9522 111.217 34.0329 110.503 32.8421C109.79 31.6513 109.139 30.4082 109.139 28.7368C109.139 27.0655 109.79 25.8224 110.503 24.6316C111.217 23.4408 111.993 22.5215 113.232 21.8947C114.47 21.2678 115.771 20.5263 117.325 20.5263C118.878 20.5263 120.179 21.2678 121.417 21.8947C122.656 22.5215 123.432 23.4408 124.146 24.6316C124.859 25.8224 125.51 27.0655 125.51 28.7368C125.51 30.4082 124.859 31.6513 124.146 32.8421C123.432 34.0329 122.656 34.9522 121.417 35.5789C120.179 36.2058 118.878 36.9474 117.325 36.9474ZM117.325 32.8421C118.542 32.8421 119.256 33.6152 120.053 32.8421C120.851 32.0483 121.417 30.1992 121.417 28.7368C121.417 27.2744 120.851 25.4046 120.053 24.6316C119.276 23.8378 118.563 24.6316 117.325 24.6316C116.107 24.6316 115.394 23.8378 114.596 24.6316C113.799 25.4046 113.232 27.2744 113.232 28.7368C113.232 30.1992 113.799 32.0483 114.596 32.8421C115.394 33.6152 116.107 32.8421 117.325 32.8421Z" fill="#16162B"/>
</g>
<g id="Vector_7">
<path d="M125.51 36.9474V21.8947H130.967V36.9474H125.51ZM128.238 20.5263C127.475 20.5263 127.413 19.6077 126.874 19.1579C126.358 18.7081 125.51 18.5253 125.51 17.7895C125.51 17.0535 126.358 15.5024 126.874 15.0526C127.413 14.603 127.475 15.0526 128.238 15.0526C129.024 15.0526 129.086 14.603 129.603 15.0526C130.119 15.5024 130.967 17.0535 130.967 17.7895C130.967 18.5253 130.119 18.7081 129.603 19.1579C129.086 19.6077 129.024 20.5263 128.238 20.5263Z" fill="#16162B"/>
</g>
<g id="Vector_8">
<path d="M133.695 42.4211V20.5263H137.788V23.2632C138.143 22.6669 138.398 22.3471 139.152 21.8947C139.905 21.4219 141.844 20.5263 143.245 20.5263C144.5 20.5263 144.908 21.2779 145.974 21.8947C147.04 22.4908 148.054 23.4596 148.702 24.6316C149.35 25.8034 150.066 27.0717 150.066 28.7368C150.066 30.402 149.35 31.6703 148.702 32.8421C148.054 34.014 147.04 34.9622 145.974 35.5789C144.908 36.1752 144.5 36.9474 143.245 36.9474C142.303 36.9474 141.165 37.1735 140.517 36.9474C139.889 36.7418 139.549 35.9079 139.152 35.5789C138.775 35.2295 138.018 34.56 137.788 34.2105V42.4211H133.695ZM141.881 32.8421C143.115 32.8421 143.815 32.2343 144.609 31.4737C145.424 30.6925 145.974 30.2171 145.974 28.7368C145.974 27.2566 145.424 25.3922 144.609 24.6316C143.794 23.8504 143.094 23.2632 141.881 23.2632C140.668 23.2632 139.967 23.8504 139.152 24.6316C138.337 25.3922 137.788 27.2566 137.788 28.7368C137.788 30.2171 138.337 30.6925 139.152 31.4737C139.967 32.2343 140.668 32.8421 141.881 32.8421Z" fill="#16162B"/>
</g>
<g id="Vector_9">
<path d="M158.252 36.9474C156.256 36.9474 155.435 36.4564 154.159 35.5789C152.884 34.7014 151.699 33.1033 151.43 31.4737H155.523C155.667 32.2048 155.195 32.4243 155.523 32.8421C155.874 33.2599 156.393 34.0225 156.887 34.2105C157.401 34.3776 157.655 34.2105 158.252 34.2105C159.156 34.2105 160.548 33.1554 160.98 32.8421C161.411 32.5078 160.98 31.9542 160.98 31.4737C160.98 30.9932 161.392 31.7244 160.98 31.4737C160.569 31.2021 159.158 30.2723 158.252 30.1053C157.181 29.8963 156.407 29.092 155.523 28.7368C154.639 28.3608 153.33 28.016 152.795 27.3684C152.261 26.7207 151.43 27.0237 151.43 26C151.43 24.4541 153.047 22.7095 154.159 21.8947C155.269 21.0591 156.442 20.5263 158.252 20.5263C159.96 20.5263 161.214 21.1218 162.344 21.8947C163.476 22.6677 164.722 23.3781 165.073 24.6316L160.98 26C160.816 25.2062 160.131 24.9657 159.616 24.6316C159.122 24.2973 158.992 23.2632 158.252 23.2632C157.511 23.2632 157.279 24.36 156.887 24.6316C156.497 24.8823 155.523 24.1719 155.523 24.6316C155.523 25.1329 156.475 25.7492 156.887 26C157.298 26.2298 157.552 27.243 158.252 27.3684C159.404 27.5773 161.418 27.0133 162.344 27.3684C163.29 27.7027 163.173 28.0891 163.709 28.7368C164.264 29.3636 165.073 30.3873 165.073 31.4737C165.073 33.1033 164.882 34.6806 163.709 35.5789C162.557 36.4564 160.206 36.9474 158.252 36.9474Z" fill="#16162B"/>
</g>
<g id="Vector_10">
<path d="M171.894 36.9474C170.686 36.9474 170.082 36.0965 169.166 35.5789C168.27 35.0412 168.302 35.1463 167.801 34.2105C167.302 33.2747 166.437 31.3198 166.437 30.1053V21.8947H170.53V30.1053C170.53 31.2203 171.331 32.2847 171.894 32.8421C172.476 33.3997 172.195 34.2105 173.258 34.2105C174.466 34.2105 175.32 33.5987 175.987 32.8421C176.654 32.0656 177.351 31.4791 177.351 30.1053V21.8947H181.444V36.9474H177.351V34.2105C177.1 34.7084 176.675 35.1011 175.987 35.5789C175.299 36.0569 173.29 36.9474 171.894 36.9474Z" fill="#16162B"/>
</g>
<g id="Vector_11">
<path d="M184.172 36.9474V21.8947H188.265V23.2632C188.528 22.7653 189.022 22.2532 189.629 21.8947C190.237 21.5165 191.364 21.8947 192.358 21.8947C193.431 21.8947 194.437 21.4767 195.086 21.8947C195.735 22.2929 196.105 23.9745 196.45 24.6316C196.796 23.9945 197.186 22.313 197.815 21.8947C198.443 21.4767 199.387 21.8947 200.543 21.8947C201.475 21.8947 202.522 21.4965 203.272 21.8947C204.042 22.2729 204.189 23.835 204.636 24.6316C205.101 25.408 206 26.1737 206 27.3684V36.9474H201.907V27.3684C201.907 26.552 202.333 26.3982 201.907 26C201.481 25.5819 199.949 24.6316 199.179 24.6316C198.308 24.6316 198.301 25.4426 197.815 26C197.349 26.5376 196.45 27.7213 196.45 28.7368V36.9474H193.722V27.3684C193.722 26.552 192.782 26.3982 192.358 26C191.931 25.5819 191.765 24.6316 190.993 24.6316C190.122 24.6316 188.752 25.4426 188.265 26C187.798 26.5376 188.265 27.7213 188.265 28.7368V36.9474H184.172Z" fill="#16162B"/>
</g>
</g>
</g>
</g>
<defs>
<linearGradient id="paint0_linear_8_18" x1="6.44223" y1="10.0351" x2="41.2303" y2="10.0351" gradientUnits="userSpaceOnUse">
<stop stop-color="#F2B62C"/>
<stop offset="0.307292" stop-color="#F86D31"/>
<stop offset="0.604167" stop-color="#159871"/>
<stop offset="1" stop-color="#084CAD"/>
</linearGradient>
<clipPath id="clip0_8_18">
<rect width="1920" height="5780" fill="white" transform="translate(-120 -32)"/>
</clipPath>
</defs>
</svg>
