<svg width="80" height="80" viewBox="0 0 80 80" fill="none" xmlns="http://www.w3.org/2000/svg">
<g id="calendar">
<path id="Vector" d="M65 8.75H58.75V6.25C58.75 5.25544 58.3549 4.30161 57.6516 3.59835C56.9484 2.89509 55.9946 2.5 55 2.5C54.0054 2.5 53.0516 2.89509 52.3484 3.59835C51.6451 4.30161 51.25 5.25544 51.25 6.25V8.75H28.75V6.25C28.75 5.25544 28.3549 4.30161 27.6517 3.59835C26.9484 2.89509 25.9946 2.5 25 2.5C24.0054 2.5 23.0516 2.89509 22.3483 3.59835C21.6451 4.30161 21.25 5.25544 21.25 6.25V8.75H15C13.343 8.75182 11.7543 9.41088 10.5826 10.5826C9.41088 11.7543 8.75182 13.343 8.75 15V65C8.75182 66.657 9.41088 68.2457 10.5826 69.4174C11.7543 70.5891 13.343 71.2482 15 71.25H65C66.657 71.2482 68.2457 70.5891 69.4174 69.4174C70.5891 68.2457 71.2482 66.657 71.25 65V15C71.2482 13.343 70.5891 11.7543 69.4174 10.5826C68.2457 9.41088 66.657 8.75182 65 8.75ZM63.75 16.25V23.75H16.25V16.25H63.75ZM16.25 63.75V31.25H63.75V63.75H16.25Z" fill="#F8F8F8"/>
</g>
</svg>
