<svg width="80" height="80" viewBox="0 0 80 80" fill="none" xmlns="http://www.w3.org/2000/svg">
<g id="dashboard">
<path id="Vector" d="M33.75 11.25H15C14.0054 11.25 13.0516 11.6451 12.3483 12.3483C11.6451 13.0516 11.25 14.0054 11.25 15V33.75C11.25 34.7446 11.6451 35.6984 12.3483 36.4017C13.0516 37.1049 14.0054 37.5 15 37.5H33.75C34.7446 37.5 35.6984 37.1049 36.4017 36.4017C37.1049 35.6984 37.5 34.7446 37.5 33.75V15C37.5 14.0054 37.1049 13.0516 36.4017 12.3483C35.6984 11.6451 34.7446 11.25 33.75 11.25ZM30 30H18.75V18.75H30V30ZM65 11.25H46.25C45.2554 11.25 44.3016 11.6451 43.5984 12.3483C42.8951 13.0516 42.5 14.0054 42.5 15V33.75C42.5 34.7446 42.8951 35.6984 43.5984 36.4017C44.3016 37.1049 45.2554 37.5 46.25 37.5H65C65.9946 37.5 66.9484 37.1049 67.6516 36.4017C68.3549 35.6984 68.75 34.7446 68.75 33.75V15C68.75 14.0054 68.3549 13.0516 67.6516 12.3483C66.9484 11.6451 65.9946 11.25 65 11.25ZM61.25 30H50V18.75H61.25V30ZM33.75 42.5H15C14.0054 42.5 13.0516 42.8951 12.3483 43.5984C11.6451 44.3016 11.25 45.2554 11.25 46.25V65C11.25 65.9946 11.6451 66.9484 12.3483 67.6516C13.0516 68.3549 14.0054 68.75 15 68.75H33.75C34.7446 68.75 35.6984 68.3549 36.4017 67.6516C37.1049 66.9484 37.5 65.9946 37.5 65V46.25C37.5 45.2554 37.1049 44.3016 36.4017 43.5984C35.6984 42.8951 34.7446 42.5 33.75 42.5ZM30 61.25H18.75V50H30V61.25ZM65 42.5H46.25C45.2554 42.5 44.3016 42.8951 43.5984 43.5984C42.8951 44.3016 42.5 45.2554 42.5 46.25V65C42.5 65.9946 42.8951 66.9484 43.5984 67.6516C44.3016 68.3549 45.2554 68.75 46.25 68.75H65C65.9946 68.75 66.9484 68.3549 67.6516 67.6516C68.3549 66.9484 68.75 65.9946 68.75 65V46.25C68.75 45.2554 68.3549 44.3016 67.6516 43.5984C66.9484 42.8951 65.9946 42.5 65 42.5ZM61.25 61.25H50V50H61.25V61.25Z" fill="#F8F8F8"/>
</g>
</svg>
