<svg width="80" height="80" viewBox="0 0 80 80" fill="none" xmlns="http://www.w3.org/2000/svg">
<g id="emoji">
<path id="Union" fill-rule="evenodd" clip-rule="evenodd" d="M6.66663 40.0001C6.66663 21.6001 21.5666 6.66675 39.9666 6.66675C58.4 6.66675 73.3333 21.6001 73.3333 40.0001C73.3333 58.4001 58.4 73.3334 39.9666 73.3334C21.5666 73.3334 6.66663 58.4001 6.66663 40.0001ZM13.3333 40.0001C13.3333 54.7334 25.2666 66.6668 40 66.6668C54.7333 66.6668 66.6666 54.7334 66.6666 40.0001C66.6666 25.2667 54.7333 13.3334 40 13.3334C25.2666 13.3334 13.3333 25.2667 13.3333 40.0001ZM33.3333 31.6667C33.3333 34.4282 31.0947 36.6667 28.3333 36.6667C25.5719 36.6667 23.3333 34.4282 23.3333 31.6667C23.3333 28.9053 25.5719 26.6667 28.3333 26.6667C31.0947 26.6667 33.3333 28.9053 33.3333 31.6667ZM56.6666 31.6667C56.6666 34.4282 54.4281 36.6667 51.6666 36.6667C48.9052 36.6667 46.6666 34.4282 46.6666 31.6667C46.6666 28.9053 48.9052 26.6667 51.6666 26.6667C54.4281 26.6667 56.6666 28.9053 56.6666 31.6667ZM40 60.0001C47.6 60.0001 54.0666 54.4667 56.6666 46.6667H23.3333C25.9333 54.4667 32.4 60.0001 40 60.0001Z" fill="#F8F8F8"/>
</g>
</svg>
