<svg width="80" height="80" viewBox="0 0 80 80" fill="none" xmlns="http://www.w3.org/2000/svg">
<g id="Loading">
<path id="Vector" d="M43.75 10V20C43.75 20.9946 43.3549 21.9484 42.6516 22.6517C41.9484 23.3549 40.9946 23.75 40 23.75C39.0054 23.75 38.0516 23.3549 37.3483 22.6517C36.6451 21.9484 36.25 20.9946 36.25 20V10C36.25 9.00544 36.6451 8.05161 37.3483 7.34835C38.0516 6.64509 39.0054 6.25 40 6.25C40.9946 6.25 41.9484 6.64509 42.6516 7.34835C43.3549 8.05161 43.75 9.00544 43.75 10ZM70 36.25H60C59.0054 36.25 58.0516 36.6451 57.3484 37.3483C56.6451 38.0516 56.25 39.0054 56.25 40C56.25 40.9946 56.6451 41.9484 57.3484 42.6516C58.0516 43.3549 59.0054 43.75 60 43.75H70C70.9946 43.75 71.9484 43.3549 72.6516 42.6516C73.3549 41.9484 73.75 40.9946 73.75 40C73.75 39.0054 73.3549 38.0516 72.6516 37.3483C71.9484 36.6451 70.9946 36.25 70 36.25ZM56.7812 51.5C56.0623 50.9016 55.1456 50.5934 54.2112 50.6361C53.2767 50.6787 52.392 51.0691 51.7305 51.7305C51.0691 52.392 50.6787 53.2767 50.6361 54.2112C50.5934 55.1456 50.9016 56.0623 51.5 56.7812L58.5625 63.875C58.9116 64.2229 59.326 64.4986 59.7817 64.6863C60.2375 64.874 60.7258 64.97 61.2188 64.9688C62.2129 64.9644 63.1661 64.572 63.875 63.875C64.2246 63.5266 64.502 63.1126 64.6913 62.6568C64.8805 62.201 64.978 61.7123 64.978 61.2188C64.978 60.7252 64.8805 60.2365 64.6913 59.7807C64.502 59.3249 64.2246 58.9109 63.875 58.5625L56.7812 51.5ZM40 56.25C39.0054 56.25 38.0516 56.6451 37.3483 57.3484C36.6451 58.0516 36.25 59.0054 36.25 60V70C36.25 70.9946 36.6451 71.9484 37.3483 72.6516C38.0516 73.3549 39.0054 73.75 40 73.75C40.9946 73.75 41.9484 73.3549 42.6516 72.6516C43.3549 71.9484 43.75 70.9946 43.75 70V60C43.75 59.0054 43.3549 58.0516 42.6516 57.3484C41.9484 56.6451 40.9946 56.25 40 56.25ZM23.2188 51.5L16.125 58.5625C15.7754 58.9109 15.498 59.3249 15.3087 59.7807C15.1195 60.2365 15.022 60.7252 15.022 61.2188C15.022 61.7123 15.1195 62.201 15.3087 62.6568C15.498 63.1126 15.7754 63.5266 16.125 63.875C16.8339 64.572 17.7871 64.9644 18.7812 64.9688C19.2742 64.97 19.7625 64.874 20.2183 64.6863C20.674 64.4986 21.0884 64.2229 21.4375 63.875L28.5 56.7812C29.0984 56.0623 29.4066 55.1456 29.3639 54.2112C29.3213 53.2767 28.9309 52.392 28.2695 51.7305C27.608 51.0691 26.7233 50.6787 25.7888 50.6361C24.8544 50.5934 23.9377 50.9016 23.2188 51.5ZM23.75 40C23.75 39.0054 23.3549 38.0516 22.6517 37.3483C21.9484 36.6451 20.9946 36.25 20 36.25H10C9.00544 36.25 8.05161 36.6451 7.34835 37.3483C6.64509 38.0516 6.25 39.0054 6.25 40C6.25 40.9946 6.64509 41.9484 7.34835 42.6516C8.05161 43.3549 9.00544 43.75 10 43.75H20C20.9946 43.75 21.9484 43.3549 22.6517 42.6516C23.3549 41.9484 23.75 40.9946 23.75 40ZM21.4375 16.125C21.0887 15.7762 20.6746 15.4995 20.2188 15.3107C19.763 15.1219 19.2746 15.0247 18.7812 15.0247C18.2879 15.0247 17.7995 15.1219 17.3437 15.3107C16.8879 15.4995 16.4738 15.7762 16.125 16.125C15.7762 16.4738 15.4995 16.8879 15.3107 17.3437C15.1219 17.7995 15.0247 18.2879 15.0247 18.7812C15.0247 19.2746 15.1219 19.763 15.3107 20.2188C15.4995 20.6746 15.7762 21.0887 16.125 21.4375L23.2188 28.5C23.9211 29.1965 24.8702 29.5874 25.8594 29.5874C26.8485 29.5874 27.7977 29.1965 28.5 28.5C28.8486 28.1543 29.1254 27.7429 29.3142 27.2897C29.5031 26.8365 29.6003 26.3504 29.6003 25.8594C29.6003 25.3684 29.5031 24.8822 29.3142 24.429C29.1254 23.9758 28.8486 23.5645 28.5 23.2188L21.4375 16.125Z" fill="#F8F8F8"/>
</g>
</svg>
